<?xml version="1.0" encoding="UTF-8" standalone="no"?>
<!-- Created with Inkscape (http://www.inkscape.org/) -->

<svg
   width="600"
   height="150.52039"
   viewBox="0 0 158.75001 39.825186"
   version="1.1"
   id="svg12977"
   inkscape:export-filename="C:\Users\corin\Documents\golfswingreplay\2022\title_option_1.png"
   inkscape:export-xdpi="300"
   inkscape:export-ydpi="300"
   inkscape:version="1.1 (c68e22c387, 2021-05-23)"
   sodipodi:docname="golf_swing_replay_title.svg"
   xmlns:inkscape="http://www.inkscape.org/namespaces/inkscape"
   xmlns:sodipodi="http://sodipodi.sourceforge.net/DTD/sodipodi-0.dtd"
   xmlns="http://www.w3.org/2000/svg"
   xmlns:svg="http://www.w3.org/2000/svg">
  <sodipodi:namedview
     id="namedview12979"
     pagecolor="#ffffff"
     bordercolor="#666666"
     borderopacity="1.0"
     inkscape:pageshadow="2"
     inkscape:pageopacity="0.0"
     inkscape:pagecheckerboard="0"
     inkscape:document-units="mm"
     showgrid="false"
     fit-margin-top="10"
     fit-margin-left="10"
     fit-margin-right="10"
     fit-margin-bottom="10"
     units="px"
     inkscape:zoom="1.8973437"
     inkscape:cx="347.32769"
     inkscape:cy="-36.103106"
     inkscape:window-width="2560"
     inkscape:window-height="1377"
     inkscape:window-x="593"
     inkscape:window-y="-8"
     inkscape:window-maximized="1"
     inkscape:current-layer="text165420-2-0" />
  <defs
     id="defs12974">
    <inkscape:path-effect
       effect="powerclip"
       id="path-effect14847"
       is_visible="true"
       lpeversion="1"
       inverse="true"
       flatten="false"
       hide_clip="false"
       message="Use fill-rule evenodd on &lt;b&gt;fill and stroke&lt;/b&gt; dialog if no flatten result after convert clip to paths." />
    <clipPath
       clipPathUnits="userSpaceOnUse"
       id="clipPath14807">
      <g
         id="g14845"
         style="display:none;fill:#ffffff">
        <g
           id="g14813">
          <path
             style="color:#000000;stroke-width:7.57684;stroke-linecap:round;-inkscape-stroke:none"
             d="M 126.06781,67.420627 H 233.23892"
             id="path14809" />
          <path
             style="color:#000000;stroke-linecap:round;-inkscape-stroke:none"
             d="m 126.06836,63.632812 a 3.78842,3.78842 0 0 0 -3.78906,3.78711 3.78842,3.78842 0 0 0 3.78906,3.789062 h 107.16992 a 3.78842,3.78842 0 0 0 3.78906,-3.789062 3.78842,3.78842 0 0 0 -3.78906,-3.78711 z"
             id="path14811" />
        </g>
        <g
           id="g14819">
          <path
             style="color:#000000;stroke-width:7.57684;stroke-linecap:round;-inkscape-stroke:none"
             d="m 126.06781,45.633388 h 68.08393"
             id="path14815" />
          <path
             style="color:#000000;stroke-linecap:round;-inkscape-stroke:none"
             d="m 126.06836,41.845703 a 3.78842,3.78842 0 0 0 -3.78906,3.787109 3.78842,3.78842 0 0 0 3.78906,3.789063 h 68.08398 a 3.78842,3.78842 0 0 0 3.78711,-3.789063 3.78842,3.78842 0 0 0 -3.78711,-3.787109 z"
             id="path14817" />
        </g>
        <g
           id="g14825">
          <path
             style="color:#000000;stroke-width:7.57684;stroke-linecap:round;-inkscape-stroke:none"
             d="M 126.06781,89.207866 H 273.31592"
             id="path14821" />
          <path
             style="color:#000000;stroke-linecap:round;-inkscape-stroke:none"
             d="m 126.06836,85.419922 a 3.78842,3.78842 0 0 0 -3.78906,3.787109 3.78842,3.78842 0 0 0 3.78906,3.789063 h 147.24805 a 3.78842,3.78842 0 0 0 3.78711,-3.789063 3.78842,3.78842 0 0 0 -3.78711,-3.787109 z"
             id="path14823" />
        </g>
        <g
           id="g14831">
          <path
             style="color:#000000;stroke-width:7.57684;stroke-linecap:round;-inkscape-stroke:none"
             d="M 126.06781,110.99431 H 273.31592"
             id="path14827" />
          <path
             style="color:#000000;stroke-linecap:round;-inkscape-stroke:none"
             d="m 126.06836,107.20508 a 3.78842,3.78842 0 0 0 -3.78906,3.78906 3.78842,3.78842 0 0 0 3.78906,3.78906 h 147.24805 a 3.78842,3.78842 0 0 0 3.78711,-3.78906 3.78842,3.78842 0 0 0 -3.78711,-3.78906 z"
             id="path14829" />
        </g>
        <g
           id="g14837">
          <path
             style="color:#000000;stroke-width:7.57684;stroke-linecap:round;-inkscape-stroke:none"
             d="M 126.06781,132.78234 H 273.31592"
             id="path14833" />
          <path
             style="color:#000000;stroke-linecap:round;-inkscape-stroke:none"
             d="m 126.06836,128.99414 a 3.78842,3.78842 0 0 0 -3.78906,3.78906 3.78842,3.78842 0 0 0 3.78906,3.78711 h 147.24805 a 3.78842,3.78842 0 0 0 3.78711,-3.78711 3.78842,3.78842 0 0 0 -3.78711,-3.78906 z"
             id="path14835" />
        </g>
        <g
           id="g14843">
          <path
             style="color:#000000;stroke-width:7.57684;stroke-linecap:round;-inkscape-stroke:none"
             d="M 126.06781,154.56958 H 273.31592"
             id="path14839" />
          <path
             style="color:#000000;stroke-linecap:round;-inkscape-stroke:none"
             d="m 126.06836,150.78125 a 3.78842,3.78842 0 0 0 -3.78906,3.78906 3.78842,3.78842 0 0 0 3.78906,3.78711 h 147.24805 a 3.78842,3.78842 0 0 0 3.78711,-3.78711 3.78842,3.78842 0 0 0 -3.78711,-3.78906 z"
             id="path14841" />
        </g>
      </g>
      <path
         id="lpe_path-effect14847"
         style="fill:#ffffff"
         class="powerclip"
         d="M 70.134314,-47.69123 H 407.53907 v 238.1892 H 70.134314 Z M 126.06781,67.420627 H 233.23892 M 126.06836,63.632812 a 3.78842,3.78842 0 0 0 -3.78906,3.78711 3.78842,3.78842 0 0 0 3.78906,3.789062 h 107.16992 a 3.78842,3.78842 0 0 0 3.78906,-3.789062 3.78842,3.78842 0 0 0 -3.78906,-3.78711 z m -5.5e-4,-17.999424 h 68.08393 m -68.08338,-3.787685 a 3.78842,3.78842 0 0 0 -3.78906,3.787109 3.78842,3.78842 0 0 0 3.78906,3.789063 h 68.08398 a 3.78842,3.78842 0 0 0 3.78711,-3.789063 3.78842,3.78842 0 0 0 -3.78711,-3.787109 z m -5.5e-4,47.362163 H 273.31592 M 126.06836,85.419922 a 3.78842,3.78842 0 0 0 -3.78906,3.787109 3.78842,3.78842 0 0 0 3.78906,3.789063 h 147.24805 a 3.78842,3.78842 0 0 0 3.78711,-3.789063 3.78842,3.78842 0 0 0 -3.78711,-3.787109 z m -5.5e-4,25.574388 h 147.24811 m -147.24756,-3.78923 a 3.78842,3.78842 0 0 0 -3.78906,3.78906 3.78842,3.78842 0 0 0 3.78906,3.78906 h 147.24805 a 3.78842,3.78842 0 0 0 3.78711,-3.78906 3.78842,3.78842 0 0 0 -3.78711,-3.78906 z m -5.5e-4,25.57726 h 147.24811 m -147.24756,-3.7882 a 3.78842,3.78842 0 0 0 -3.78906,3.78906 3.78842,3.78842 0 0 0 3.78906,3.78711 h 147.24805 a 3.78842,3.78842 0 0 0 3.78711,-3.78711 3.78842,3.78842 0 0 0 -3.78711,-3.78906 z m -5.5e-4,25.57544 h 147.24811 m -147.24756,-3.78833 a 3.78842,3.78842 0 0 0 -3.78906,3.78906 3.78842,3.78842 0 0 0 3.78906,3.78711 h 147.24805 a 3.78842,3.78842 0 0 0 3.78711,-3.78711 3.78842,3.78842 0 0 0 -3.78711,-3.78906 z" />
    </clipPath>
  </defs>
  <g
     inkscape:label="Layer 1"
     inkscape:groupmode="layer"
     id="layer1"
     transform="translate(13.341216,-127.41423)">
    <rect
       style="fill:#ffffff;stroke:none;stroke-width:0.457597;stroke-linecap:round;stroke-linejoin:round;stroke-dashoffset:478.174;paint-order:markers stroke fill"
       id="rect14164"
       width="397.97391"
       height="271.85318"
       x="-374.88022"
       y="-242.4639" />
    <g
       aria-label="golf swing replay"
       transform="matrix(0.12980378,0,0,0.12980378,1956.4627,-1535.2008)"
       id="text165420-2-0"
       style="font-size:176.389px;line-height:1;font-family:Pacifico;-inkscape-font-specification:'Pacifico, Normal';letter-spacing:-3.96875px;word-spacing:0px;white-space:pre;inline-size:1199.67;stroke-width:2.59816"
       inkscape:transform-center-x="-70.887901"
       inkscape:transform-center-y="-31.170523">
      <path
         d="m -15038.734,12965.701 q 2.293,0 3.528,2.293 1.411,2.116 1.411,5.468 0,4.057 -1.235,6.35 -1.235,2.293 -3.881,4.057 -15.169,10.23 -22.225,15.169 l -11.288,7.585 q -6.703,36.512 -17.639,57.326 -10.76,20.991 -27.517,20.991 -8.996,0 -14.64,-5.645 -5.645,-5.468 -5.645,-14.464 0,-12.523 9.878,-26.987 9.878,-14.288 37.042,-35.278 l 1.058,-6.879 q -2.999,4.762 -7.937,7.408 -4.763,2.47 -9.525,2.47 -10.937,0 -17.463,-7.938 -6.526,-7.937 -6.526,-20.814 0,-14.111 6.526,-26.635 6.526,-12.7 17.286,-20.284 10.936,-7.761 23.107,-7.761 3.881,0 5.115,1.587 1.411,1.411 2.293,5.292 3.352,-0.706 7.762,-0.706 4.409,0 6.173,1.411 1.94,1.235 1.94,5.116 0,2.116 -0.176,3.351 -0.706,5.468 -4.41,27.693 -0.705,4.233 -1.587,9.349 -0.706,4.939 -1.588,10.583 13.582,-10.583 26.106,-18.697 2.293,-1.411 4.057,-1.411 z m -62.265,22.048 q 4.056,0 7.761,-4.939 3.704,-4.939 5.291,-14.111 l 5.645,-30.162 q -7.232,0.176 -13.406,5.644 -6.173,5.292 -9.878,14.111 -3.704,8.82 -3.704,18.698 0,5.468 2.117,8.113 2.293,2.646 6.174,2.646 z m -14.641,80.081 q 4.41,0 9.878,-10.583 5.644,-10.584 10.76,-33.691 -13.582,11.642 -19.579,20.991 -5.998,9.348 -5.998,16.404 0,2.998 1.059,4.939 1.234,1.94 3.88,1.94 z"
         style="text-align:end;text-anchor:end;fill:#629379;fill-opacity:1"
         id="path1329" />
      <path
         d="m -14958.566,12950.531 q 2.293,0 3.528,2.293 1.235,2.293 1.235,5.821 0,8.467 -5.115,10.054 -10.584,3.704 -23.284,4.234 -3.351,14.816 -13.229,23.812 -9.878,8.82 -22.401,8.82 -10.584,0 -18.168,-5.116 -7.409,-5.115 -11.289,-13.582 -3.881,-8.466 -3.881,-18.344 0,-13.406 5.115,-23.813 5.116,-10.583 14.111,-16.404 8.996,-5.997 19.932,-5.997 13.406,0 21.52,9.349 8.29,9.172 9.701,22.754 8.291,-0.529 19.756,-3.528 1.411,-0.353 2.469,-0.353 z m -57.855,36.336 q 5.644,0 9.701,-4.586 4.233,-4.586 5.645,-13.229 -5.468,-3.704 -8.467,-9.701 -2.822,-5.998 -2.822,-12.7 0,-2.823 0.529,-5.645 h -0.882 q -7.056,0 -11.818,6.879 -4.586,6.703 -4.586,19.05 0,9.702 3.704,14.817 3.88,5.115 8.996,5.115 z"
         style="text-align:end;text-anchor:end;fill:#629379;fill-opacity:1"
         id="path1331" />
      <path
         d="m -14906.09,12965.348 q 2.293,0 3.528,2.117 1.411,2.116 1.411,5.82 0,7.056 -3.352,10.936 -7.584,9.349 -16.58,15.346 -8.82,5.998 -20.109,5.998 -15.522,0 -23.107,-14.112 -7.408,-14.111 -7.408,-36.512 0,-21.52 5.468,-49.036 5.645,-27.517 16.404,-47.272 10.936,-19.756 25.929,-19.756 8.467,0 13.23,7.937 4.939,7.762 4.939,22.402 0,20.99 -11.642,48.683 -11.642,27.693 -31.574,54.857 1.235,7.232 4.057,10.407 2.822,2.999 7.409,2.999 7.231,0 12.7,-4.057 5.468,-4.234 13.934,-14.288 2.117,-2.469 4.763,-2.469 z m -21.696,-109.009 q -4.057,0 -9.172,14.641 -5.116,14.64 -8.996,36.336 -3.881,21.696 -4.233,41.628 12.523,-20.638 19.931,-41.275 7.409,-20.814 7.409,-37.924 0,-13.406 -4.939,-13.406 z"
         style="text-align:end;text-anchor:end;fill:#629379;fill-opacity:1"
         id="path1333" />
      <path
         d="m -14849.029,12955.294 q 4.939,0 4.939,7.408 0,13.935 -21.872,13.935 -4.233,0 -12.171,-1.588 2.293,10.936 3.704,24.342 1.588,13.229 1.588,21.872 0,19.05 -6.174,29.104 -6.173,10.055 -16.228,10.055 -12.7,0 -18.168,-17.992 -5.291,-17.992 -5.291,-54.328 0,-33.867 7.232,-68.615 7.408,-34.925 20.108,-57.679 12.876,-22.931 28.222,-22.931 8.29,0 12.877,7.408 4.762,7.409 4.762,19.932 0,41.452 -49.565,90.311 -1.764,17.287 -1.764,30.339 0,18.168 1.235,37.218 1.234,19.227 4.057,19.227 5.291,0 5.291,-18.345 0,-13.758 -1.94,-26.634 -1.764,-12.877 -4.939,-27.164 -0.176,-2.293 1.411,-5.821 1.764,-3.528 4.233,-6.174 2.47,-2.646 4.41,-2.646 3.528,0 8.467,0.353 1.587,0.177 3.704,0.177 7.056,0 15.699,-1.235 1.411,-0.177 2.998,-0.353 1.588,-0.176 3.175,-0.176 z m -17.815,-98.955 q -3.175,0 -7.937,10.76 -4.587,10.76 -9.173,28.575 -4.586,17.639 -7.937,37.395 14.111,-16.052 21.696,-33.338 7.584,-17.462 7.761,-32.632 0,-10.76 -4.41,-10.76 z"
         style="text-align:end;text-anchor:end;fill:#629379;fill-opacity:1"
         id="path1335" />
      <path
         d="m -14792.546,13009.445 q -9.172,0 -14.111,-4.233 -4.762,-4.234 -4.762,-9.525 0,-4.586 3.351,-7.938 3.351,-3.351 9.878,-3.351 2.293,0 5.291,0.529 3.175,0.353 4.763,0.529 -0.176,-4.586 -2.117,-8.643 -1.764,-4.057 -4.586,-7.761 -2.822,-3.881 -5.291,-6.703 -5.469,10.407 -10.937,17.286 -5.291,6.88 -11.641,13.053 -3.175,3.175 -6.703,3.175 -2.822,0 -4.586,-1.94 -1.764,-2.117 -1.764,-5.115 0,-3.528 2.469,-6.527 l 2.293,-2.822 q 9.702,-11.994 14.641,-19.756 2.998,-5.115 7.055,-13.582 4.057,-8.643 7.938,-17.815 3.351,-7.761 13.935,-7.761 4.938,0 6.879,0.882 1.94,0.882 1.94,2.822 0,1.059 -0.706,3.352 -0.705,2.293 -1.94,4.586 -3.175,6.35 -3.175,10.759 0,2.646 1.764,5.821 1.94,3.175 5.821,7.938 5.644,7.408 8.467,12.7 2.998,5.115 2.998,11.289 0,1.764 -0.353,4.939 8.643,-3.352 20.285,-17.816 2.117,-2.469 4.763,-2.469 2.293,0 3.527,2.117 1.412,2.116 1.412,5.82 0,6.703 -3.352,10.936 -8.819,10.937 -16.933,14.994 -7.938,3.88 -19.756,4.233 -7.055,5.997 -16.757,5.997 z"
         style="text-align:end;text-anchor:end;fill:#629379;fill-opacity:1"
         id="path1337" />
      <path
         d="m -14620.655,12951.06 q 0.529,-0.176 1.764,-0.176 2.645,0 4.057,1.764 1.411,1.764 1.411,4.762 0,5.468 -2.117,8.643 -2.117,2.999 -6.35,4.41 -8.114,2.646 -17.286,2.646 -7.761,0 -14.64,-2.117 -5.116,8.291 -11.289,17.11 -7.056,10.054 -12.171,13.758 -4.939,3.705 -11.289,3.705 -7.056,0 -10.76,-5.468 -3.528,-5.469 -4.409,-17.992 l -0.882,-12.877 q -5.468,14.817 -9.878,22.578 -4.234,7.761 -8.643,10.76 -4.234,2.999 -10.054,2.999 -7.232,0 -11.466,-5.645 -4.057,-5.644 -5.115,-17.815 -2.117,-24.695 -2.117,-43.215 v -6.174 q 0.177,-5.821 3.175,-8.114 2.999,-2.293 8.996,-2.293 4.586,0 6.703,2.117 2.293,1.94 2.293,6.702 0,20.285 2.469,52.741 11.995,-25.224 22.049,-52.564 1.94,-5.292 4.586,-7.056 2.822,-1.94 6.703,-1.94 4.762,0 6.526,1.94 1.941,1.941 1.941,6.879 0,20.285 2.469,52.741 10.583,-15.699 15.875,-25.048 -2.646,-5.115 -2.646,-12.17 0,-5.998 2.646,-11.642 2.646,-5.644 7.232,-9.172 4.586,-3.528 10.407,-3.528 5.115,0 8.29,3.704 3.175,3.528 3.175,10.407 0,7.938 -4.233,18.168 6.703,-0.353 17.815,-2.646 z"
         style="text-align:end;text-anchor:end;fill:#629379;fill-opacity:1"
         id="path1339" />
      <path
         d="m -14609.631,12910.844 q -7.408,0 -11.113,-3.352 -3.704,-3.528 -3.704,-9.701 0,-6.174 4.763,-10.231 4.939,-4.233 12.171,-4.233 6.526,0 10.583,3.175 4.057,3.175 4.057,8.996 0,7.055 -4.586,11.289 -4.586,4.057 -12.171,4.057 z m -1.411,94.721 q -11.466,0 -16.757,-8.114 -5.116,-8.114 -5.116,-21.52 0,-7.937 1.941,-20.285 2.116,-12.523 5.291,-23.283 1.588,-5.644 4.234,-7.761 2.646,-2.117 8.466,-2.117 8.996,0 8.996,5.998 0,4.409 -3.351,20.461 -4.233,19.402 -4.233,26.282 0,5.291 1.411,8.114 1.411,2.822 4.762,2.822 3.175,0 7.938,-4.41 4.762,-4.41 12.7,-13.935 2.116,-2.469 4.762,-2.469 2.293,0 3.528,2.117 1.411,2.116 1.411,5.82 0,7.056 -3.351,10.936 -17.463,21.344 -32.632,21.344 z"
         style="text-align:end;text-anchor:end;fill:#629379;fill-opacity:1"
         id="path1341" />
      <path
         d="m -14580.792,13005.565 q -6.703,0 -9.525,-7.056 -2.646,-7.056 -2.646,-22.578 0,-22.93 6.527,-43.568 1.587,-5.115 5.115,-7.408 3.704,-2.47 10.231,-2.47 3.527,0 4.938,0.882 1.412,0.882 1.412,3.352 0,2.822 -2.646,12.7 -1.764,7.055 -2.823,12.347 -1.058,5.292 -1.763,13.053 5.82,-15.17 13.052,-24.695 7.232,-9.525 14.112,-13.582 7.055,-4.057 12.876,-4.057 11.465,0 11.465,11.466 0,6.879 -3.88,24.87 -3.352,15.346 -3.352,20.285 0,7.056 5.116,7.056 3.527,0 8.29,-4.234 4.939,-4.409 13.053,-14.111 2.116,-2.469 4.762,-2.469 2.293,0 3.528,2.117 1.411,2.116 1.411,5.82 0,7.056 -3.351,10.936 -7.585,9.349 -16.405,15.346 -8.643,5.998 -19.755,5.998 -8.996,0 -13.582,-5.116 -4.586,-5.291 -4.586,-15.169 0,-4.939 2.469,-17.639 2.293,-11.113 2.293,-15.346 0,-2.822 -1.94,-2.822 -2.293,0 -6.526,5.997 -4.057,5.821 -8.467,15.522 -4.233,9.702 -6.879,20.461 -1.941,8.291 -4.586,11.289 -2.47,2.823 -7.938,2.823 z"
         style="text-align:end;text-anchor:end;fill:#629379;fill-opacity:1"
         id="path1343" />
      <path
         d="m -14450,12928.306 q 4.41,0 6.174,1.411 1.94,1.235 1.94,5.116 0,2.116 -0.176,3.351 -0.706,5.468 -4.41,28.222 -2.646,15.346 -3.351,20.285 -6.703,45.508 -18.168,71.79 -11.289,26.459 -30.339,26.459 -8.996,0 -14.641,-5.645 -5.644,-5.468 -5.644,-14.464 0,-12.523 9.878,-26.987 9.878,-14.288 37.042,-35.278 l 1.058,-6.879 q -2.999,4.762 -7.938,7.408 -4.762,2.47 -9.525,2.47 -10.936,0 -17.462,-7.938 -6.527,-7.937 -6.527,-20.814 0,-14.111 6.527,-26.635 6.526,-12.7 17.286,-20.284 10.936,-7.761 23.107,-7.761 3.88,0 5.115,1.587 1.411,1.411 2.293,5.292 3.352,-0.706 7.761,-0.706 z m -31.75,59.443 q 4.057,0 7.761,-4.939 3.705,-4.939 5.292,-14.111 l 5.645,-30.162 q -7.232,0.176 -13.406,5.644 -6.174,5.292 -9.878,14.111 -3.704,8.82 -3.704,18.698 0,5.468 2.117,8.113 2.293,2.646 6.173,2.646 z m -14.64,80.081 q 4.41,0 9.878,-10.583 5.644,-10.584 10.76,-33.691 -13.582,11.642 -19.58,20.991 -5.997,9.348 -5.997,16.404 0,2.998 1.058,4.939 1.235,1.94 3.881,1.94 z"
         style="text-align:end;text-anchor:end;fill:#629379;fill-opacity:1"
         id="path1345" />
      <path
         d="m -14351.105,12946.651 q 3.88,0 6.526,2.822 2.822,2.646 2.822,6.703 0,2.293 -1.058,4.939 -2.822,6.526 -7.938,10.936 -5.115,4.409 -11.288,4.409 -4.939,0 -8.467,-3.527 -3.352,-3.528 -3.352,-9.525 0,-3.352 0.353,-7.232 0.353,-2.823 0.353,-3.881 0,-1.411 -0.706,-2.117 -0.529,-0.705 -1.411,-0.705 -2.469,0 -6.702,5.997 -4.234,5.821 -8.467,15.522 -4.233,9.702 -6.879,20.461 -1.941,8.467 -4.41,11.289 -2.469,2.823 -8.114,2.823 -6.703,0 -9.525,-7.056 -2.646,-7.056 -2.646,-22.578 0,-22.93 6.527,-43.568 1.587,-5.115 5.115,-7.408 3.704,-2.47 10.231,-2.47 3.527,0 4.938,0.882 1.412,0.882 1.412,3.352 0,2.822 -2.646,12.7 -1.764,7.055 -2.823,12.347 -1.058,5.292 -1.763,13.053 5.82,-15.17 13.052,-24.695 7.232,-9.525 14.111,-13.582 6.88,-4.057 12.524,-4.057 5.115,0 7.761,2.999 2.822,2.822 2.822,8.467 0,3.351 -1.94,12.7 z"
         id="path1347"
         style="fill:#629379;fill-opacity:1" />
      <path
         d="m -14260.353,12965.348 q 2.293,0 3.527,2.117 1.412,2.116 1.412,5.82 0,7.056 -3.352,10.936 -6.526,7.938 -18.521,14.641 -11.818,6.703 -25.4,6.703 -18.521,0 -28.751,-10.055 -10.231,-10.054 -10.231,-27.516 0,-12.171 5.116,-22.578 5.115,-10.583 14.111,-16.757 9.172,-6.174 20.637,-6.174 10.231,0 16.404,6.174 6.174,5.997 6.174,16.404 0,12.171 -8.819,20.99 -8.644,8.643 -29.457,13.759 4.409,8.114 16.757,8.114 7.937,0 17.991,-5.468 10.231,-5.645 17.639,-14.641 2.117,-2.469 4.763,-2.469 z m -44.45,-25.577 q -6.527,0 -11.113,7.585 -4.41,7.585 -4.41,18.345 v 0.352 q 10.407,-2.469 16.405,-7.408 5.997,-4.939 5.997,-11.465 0,-3.352 -1.941,-5.292 -1.763,-2.117 -4.938,-2.117 z"
         style="letter-spacing:-3.97475px;word-spacing:-0.06115px;fill:#629379;fill-opacity:1"
         id="path1349" />
      <path
         d="m -14175.958,12965.348 q 2.294,0 3.528,2.117 1.411,2.116 1.411,5.82 0,7.056 -3.351,10.936 -7.585,9.349 -16.404,15.346 -8.643,5.998 -19.756,5.998 -9.348,0 -15.169,-6.703 -10.054,6.526 -20.991,6.703 -2.293,34.043 -10.406,56.797 -8.114,22.93 -23.813,22.93 -9.525,0 -14.111,-6.879 -4.586,-6.879 -4.586,-19.05 0,-17.286 7.937,-40.393 7.938,-22.93 24.518,-50.624 0,-25.752 -0.352,-35.806 -0.177,-5.116 4.057,-8.114 4.233,-2.999 10.583,-2.999 3.704,0 5.292,1.588 1.763,1.411 1.94,5.82 0,4.41 0.176,6.527 5.645,-7.056 11.113,-10.054 5.468,-3.175 11.641,-3.175 9.878,0 16.052,7.937 6.35,7.938 6.35,20.814 0,9.349 -2.999,18.168 -2.998,8.819 -8.29,16.051 3.704,1.059 6.173,1.059 5.821,0 11.113,-4.234 5.292,-4.233 13.582,-14.111 2.117,-2.469 4.762,-2.469 z m -69.85,23.283 q 6.35,-1.411 11.642,-6.879 5.468,-5.644 8.643,-13.758 3.175,-8.291 3.175,-17.286 0,-5.292 -2.117,-7.938 -2.116,-2.822 -5.644,-2.822 -6.35,0 -15.346,13.405 -0.176,7.762 -0.176,22.755 0,8.113 -0.177,12.523 z m -33.69,79.375 q 4.763,0 7.938,-20.814 3.175,-20.637 4.057,-51.505 -7.585,17.639 -11.995,33.69 -4.41,16.051 -4.41,26.988 0,5.644 1.411,8.643 1.235,2.998 2.999,2.998 z"
         style="letter-spacing:-3.97475px;word-spacing:-0.06115px;fill:#629379;fill-opacity:1"
         id="path1351" />
      <path
         d="m -14122.43,12965.348 q 2.293,0 3.528,2.117 1.411,2.116 1.411,5.82 0,7.056 -3.351,10.936 -7.585,9.349 -16.581,15.346 -8.819,5.998 -20.108,5.998 -15.522,0 -23.107,-14.112 -7.408,-14.111 -7.408,-36.512 0,-21.52 5.468,-49.036 5.644,-27.517 16.404,-47.272 10.936,-19.756 25.929,-19.756 8.467,0 13.229,7.937 4.939,7.762 4.939,22.402 0,20.99 -11.642,48.683 -11.641,27.693 -31.573,54.857 1.235,7.232 4.057,10.407 2.822,2.999 7.408,2.999 7.232,0 12.7,-4.057 5.468,-4.234 13.935,-14.288 2.116,-2.469 4.762,-2.469 z m -21.696,-109.009 q -4.056,0 -9.172,14.641 -5.115,14.64 -8.996,36.336 -3.88,21.696 -4.233,41.628 12.524,-20.638 19.932,-41.275 7.408,-20.814 7.408,-37.924 0,-13.406 -4.939,-13.406 z"
         style="letter-spacing:-3.97475px;word-spacing:-0.06115px;fill:#629379;fill-opacity:1"
         id="path1353" />
      <path
         d="m -14115.821,13005.565 q -10.937,0 -17.463,-7.938 -6.526,-7.937 -6.526,-20.814 0,-14.111 6.526,-26.635 6.526,-12.7 17.286,-20.284 10.936,-7.761 23.107,-7.761 3.881,0 5.115,1.587 1.412,1.411 2.293,5.292 3.705,-0.706 7.762,-0.706 8.643,0 8.643,6.174 0,3.704 -2.646,17.639 -4.057,20.284 -4.057,28.222 0,2.646 1.235,4.233 1.411,1.588 3.527,1.588 3.352,0 8.114,-4.234 4.763,-4.409 12.877,-14.111 2.116,-2.469 4.762,-2.469 2.293,0 3.528,2.117 1.411,2.116 1.411,5.82 0,7.056 -3.351,10.936 -7.232,8.996 -15.346,15.17 -8.114,6.174 -15.699,6.174 -5.821,0 -10.76,-3.881 -4.762,-4.057 -7.231,-10.936 -9.173,14.817 -23.107,14.817 z m 6.35,-17.816 q 3.88,0 7.408,-4.586 3.528,-4.586 5.115,-12.171 l 6.527,-32.455 q -7.409,0.176 -13.759,5.644 -6.173,5.292 -9.878,14.111 -3.704,8.82 -3.704,18.698 0,5.468 2.117,8.113 2.293,2.646 6.174,2.646 z"
         style="letter-spacing:-3.97475px;word-spacing:-0.06115px;fill:#629379;fill-opacity:1"
         id="path1355" />
      <path
         d="m -13996.853,12922.485 q 4.057,0 5.644,1.059 1.588,1.058 1.588,3.527 0,4.234 -4.586,30.163 -4.057,24.871 -4.763,29.457 -6.526,45.332 -17.991,71.79 -11.466,26.459 -30.516,26.459 -8.996,0 -14.64,-5.645 -5.645,-5.468 -5.645,-14.464 0,-8.29 3.705,-16.933 3.88,-8.643 14.111,-19.932 10.407,-11.113 29.28,-25.576 l 0.53,-4.057 q 1.234,-6.527 2.822,-18.698 -3.528,12.7 -9.878,19.403 -6.35,6.527 -13.406,6.527 -7.937,0 -13.052,-7.232 -4.939,-7.409 -4.939,-18.345 0,-13.229 1.764,-24.165 1.764,-11.113 5.82,-23.46 1.764,-5.292 4.939,-7.585 3.175,-2.293 10.055,-2.293 3.88,0 5.291,1.235 1.588,1.235 1.588,3.704 0,1.411 -1.941,9.525 -1.763,6.527 -2.822,11.818 -1.411,7.232 -2.469,13.935 -1.059,6.526 -1.059,10.76 0,6.703 3.705,6.703 2.645,0 6.526,-5.292 4.057,-5.292 8.467,-16.052 4.586,-10.759 8.819,-26.458 1.411,-5.292 4.233,-7.585 2.999,-2.293 8.82,-2.293 z m -48.683,145.345 q 4.409,0 9.877,-10.231 5.468,-10.23 10.936,-34.043 -13.582,11.466 -19.755,20.814 -5.997,9.525 -5.997,16.581 0,2.998 1.058,4.939 1.235,1.94 3.881,1.94 z"
         style="letter-spacing:-3.97475px;word-spacing:-0.06115px;fill:#629379;fill-opacity:1"
         id="path1357" />
    </g>
  </g>
</svg>
